<svg id="svg279664" xmlns="http://www.w3.org/2000/svg" width="539.89" height="172.34" viewBox="0 0 539.89 172.34"><defs><style>.cls-1{fill:#ddbd8b;}</style></defs><title>tupa_logo_main</title><g id="title"><path id="path279672" class="cls-1" d="M287.42,306.11V423.83h9.18V306.11H342v-8.28h-99.9v8.28Z" transform="translate(-242.06 -297.83)"/><path id="path279674" class="cls-1" d="M391.64,410.87c8.82,9.36,21.24,13.86,37.26,13.86,15.84,0,28.26-4.5,37.26-13.86,8.82-9.18,13.32-22.68,13.32-40.5V297.83H470.3V370c0,15.48-3.6,27.18-10.62,34.74-7.2,7.74-17.28,11.52-30.6,11.52-13.5,0-23.76-3.78-30.78-11.52-7.2-7.56-10.62-19.26-10.62-34.74V297.83H378.5v72.54c0,17.82,4.32,31.32,13.14,40.5Z" transform="translate(-242.06 -297.83)"/><path id="path279676" class="cls-1" d="M622.26,309.17q-13.5-11.34-37.26-11.34H539.82v8.28H585c13.32,0,23.58,3.06,30.78,9,7,5.94,10.62,14.4,10.62,25.2,0,11-3.6,19.44-10.62,25.2-7.2,5.94-17.46,8.82-30.78,8.82H539.82v49.5H549V382.61h36c15.84,0,28.26-3.6,37.26-11.16s13.5-17.82,13.5-31.14C635.76,327.17,631.26,316.73,622.26,309.17Z" transform="translate(-242.06 -297.83)"/><path id="path279678" class="cls-1" d="M724,297.83H714.8l-58,126h9.9L719.3,307.91,772,423.83h9.9Z" transform="translate(-242.06 -297.83)"/></g><g id="tagline"><path id="path279681" class="cls-1" d="M242.06,445.68H257v2.4h-6.17v16.71H248.2V448.08h-6.14Z" transform="translate(-242.06 -297.83)"/><path id="path279683" class="cls-1" d="M262.75,453.46a5.21,5.21,0,0,1,2-2.35,6,6,0,0,1,3.12-.85v2.46a4.66,4.66,0,0,0-5.14,4.45v7.62h-2.54V450.35h2.54Z" transform="translate(-242.06 -297.83)"/><path id="path279685" class="cls-1" d="M280.55,464.79v-2a6.85,6.85,0,0,1-7.7,1.56,4.2,4.2,0,0,1-2.35-3.85,3.69,3.69,0,0,1,1.42-3.06,6.43,6.43,0,0,1,4-1.18h4.59v-.68a2.93,2.93,0,0,0-1-2.35,4,4,0,0,0-2.73-.84,7.89,7.89,0,0,0-4.45,1.55l-1.07-1.74a12.67,12.67,0,0,1,2.87-1.45,9.67,9.67,0,0,1,3.17-.47,6,6,0,0,1,4.18,1.34,4.78,4.78,0,0,1,1.5,3.69l0,9.5Zm-4.53-2a5.1,5.1,0,0,0,3-.85,3.45,3.45,0,0,0,1.51-2.29v-1.45h-4.24a5,5,0,0,0-2.56.52,1.78,1.78,0,0,0-.82,1.64,2.12,2.12,0,0,0,.84,1.77A3.6,3.6,0,0,0,276,462.8Z" transform="translate(-242.06 -297.83)"/><path id="path279687" class="cls-1" d="M297.31,450.26a5.27,5.27,0,0,1,4,1.51,5.59,5.59,0,0,1,1.44,4.09v8.93H300.2v-8.25a3.56,3.56,0,0,0-3.85-3.87,4.35,4.35,0,0,0-3.16,1.25,4.82,4.82,0,0,0-1.37,3.14v7.73h-2.54V450.35h2.54v3Q293.26,450.33,297.31,450.26Z" transform="translate(-242.06 -297.83)"/><path id="path279689" class="cls-1" d="M316.85,453.54a8.75,8.75,0,0,0-2-.87,6.9,6.9,0,0,0-2.05-.33,3.46,3.46,0,0,0-1.86.44,1.39,1.39,0,0,0-.68,1.28,1.49,1.49,0,0,0,.77,1.34,12.4,12.4,0,0,0,2.37.9,18.75,18.75,0,0,1,2.46.87,4.19,4.19,0,0,1,1.61,1.29,3.42,3.42,0,0,1,.68,2.24,3.55,3.55,0,0,1-1.55,3.11,6.55,6.55,0,0,1-3.83,1.06,9.62,9.62,0,0,1-3.14-.52,7.07,7.07,0,0,1-2.54-1.47l1-1.86a6.61,6.61,0,0,0,2.21,1.31,7.46,7.46,0,0,0,2.6.49,3.87,3.87,0,0,0,2-.46,1.54,1.54,0,0,0,.76-1.42,1.59,1.59,0,0,0-.82-1.47,10.66,10.66,0,0,0-2.43-1,16.78,16.78,0,0,1-2.37-.82,4.48,4.48,0,0,1-1.56-1.25,3.87,3.87,0,0,1,.85-5.16,6.31,6.31,0,0,1,3.68-1,8.6,8.6,0,0,1,2.57.38,7.59,7.59,0,0,1,2.21,1Z" transform="translate(-242.06 -297.83)"/><path id="path279691" class="cls-1" d="M331.28,450.26a7,7,0,0,1,3.61.93,6.4,6.4,0,0,1,2.45,2.6,8.69,8.69,0,0,1,0,7.62,6.18,6.18,0,0,1-2.43,2.56,7,7,0,0,1-3.57.9,6.62,6.62,0,0,1-3.23-.76,5.53,5.53,0,0,1-2.18-2.19v8.17h-2.54V450.35h2.54v2.86a5.59,5.59,0,0,1,2.16-2.18,6.52,6.52,0,0,1,3.19-.77Zm-.49,12.4a4.82,4.82,0,0,0,2.49-.65,4.53,4.53,0,0,0,1.72-1.83,5.66,5.66,0,0,0,.62-2.65,5.54,5.54,0,0,0-.62-2.62,4.61,4.61,0,0,0-1.72-1.83,4.73,4.73,0,0,0-2.49-.66,4.83,4.83,0,0,0-2.51.66,4.54,4.54,0,0,0-1.72,1.83,5.43,5.43,0,0,0-.63,2.62,5.54,5.54,0,0,0,.63,2.67,4.68,4.68,0,0,0,1.72,1.81A4.92,4.92,0,0,0,330.79,462.66Z" transform="translate(-242.06 -297.83)"/><path id="path279693" class="cls-1" d="M349.47,450.26a7.73,7.73,0,0,1,3.83.93,6.56,6.56,0,0,1,2.62,2.6,7.27,7.27,0,0,1,.95,3.76,7.47,7.47,0,0,1-.95,3.8,6.47,6.47,0,0,1-2.62,2.59,7.73,7.73,0,0,1-3.83.93,7.91,7.91,0,0,1-3.87-.93,6.72,6.72,0,0,1-2.62-2.56,7.73,7.73,0,0,1-.93-3.83,7.46,7.46,0,0,1,.93-3.76,6.75,6.75,0,0,1,2.62-2.6A7.91,7.91,0,0,1,349.47,450.26Zm0,2.22a4.93,4.93,0,0,0-2.54.65,4.74,4.74,0,0,0-1.72,1.83,5.59,5.59,0,0,0-.6,2.62,5.81,5.81,0,0,0,.6,2.68,4.74,4.74,0,0,0,1.72,1.83,5.12,5.12,0,0,0,2.54.63,4.9,4.9,0,0,0,2.49-.63,4.4,4.4,0,0,0,1.72-1.83,5.58,5.58,0,0,0,.63-2.68,5.37,5.37,0,0,0-.63-2.62,4.4,4.4,0,0,0-1.72-1.83A4.72,4.72,0,0,0,349.47,452.48Z" transform="translate(-242.06 -297.83)"/><path id="path279695" class="cls-1" d="M364.67,453.46a5.21,5.21,0,0,1,2-2.35,6,6,0,0,1,3.12-.85v2.46a4.66,4.66,0,0,0-5.14,4.45v7.62h-2.54V450.35h2.54Z" transform="translate(-242.06 -297.83)"/><path id="path279697" class="cls-1" d="M382.05,463.84a6.22,6.22,0,0,1-3.39,1.06,3.89,3.89,0,0,1-2.78-1,4.16,4.16,0,0,1-1.07-3.11v-8h-2.05v-1.94h2.05V447h2.57v3.88h4.42v1.94h-4.42v7.53a2.61,2.61,0,0,0,.44,1.72,1.59,1.59,0,0,0,1.31.52,4.66,4.66,0,0,0,2.24-.68Z" transform="translate(-242.06 -297.83)"/><path id="path279699" class="cls-1" d="M402.79,464.79v-2a6.85,6.85,0,0,1-7.7,1.56,4.32,4.32,0,0,1-1.74-1.59,4.26,4.26,0,0,1-.61-2.26,3.69,3.69,0,0,1,1.42-3.06,6.43,6.43,0,0,1,4-1.18h4.59v-.68a2.93,2.93,0,0,0-1-2.35,4,4,0,0,0-2.73-.84,7.89,7.89,0,0,0-4.45,1.55l-1.07-1.74a12.67,12.67,0,0,1,2.87-1.45,9.67,9.67,0,0,1,3.17-.47,6,6,0,0,1,4.18,1.34,4.78,4.78,0,0,1,1.5,3.69l0,9.5Zm-4.53-2a5.1,5.1,0,0,0,3-.85,3.45,3.45,0,0,0,1.51-2.29v-1.45h-4.24a5,5,0,0,0-2.56.52,1.78,1.78,0,0,0-.82,1.64,2.12,2.12,0,0,0,.84,1.77,3.6,3.6,0,0,0,2.27.66Z" transform="translate(-242.06 -297.83)"/><path id="path279701" class="cls-1" d="M419.55,450.26a5.23,5.23,0,0,1,4,1.51,5.55,5.55,0,0,1,1.45,4.09v8.93h-2.54v-8.25a3.56,3.56,0,0,0-3.85-3.87,4.39,4.39,0,0,0-3.17,1.25,4.86,4.86,0,0,0-1.36,3.14v7.73h-2.54V450.35h2.54v3Q415.5,450.33,419.55,450.26Z" transform="translate(-242.06 -297.83)"/><path id="path279703" class="cls-1" d="M444.66,444.53v20.26h-2.54v-2.87a5.67,5.67,0,0,1-2.21,2.24,6.41,6.41,0,0,1-3.19.77,7.07,7.07,0,0,1-3.64-.93,6.75,6.75,0,0,1-2.43-2.62,8.3,8.3,0,0,1-.87-3.85,7.91,7.91,0,0,1,.87-3.77,6.46,6.46,0,0,1,2.43-2.59,7,7,0,0,1,3.61-.93,6.64,6.64,0,0,1,3.25.76,5.46,5.46,0,0,1,2.18,2.21v-8.68Zm-7.43,18.21a4.87,4.87,0,0,0,2.52-.65,4.58,4.58,0,0,0,1.74-1.83,5.52,5.52,0,0,0,.63-2.65,5.61,5.61,0,0,0-.63-2.68,4.58,4.58,0,0,0-1.74-1.83,4.87,4.87,0,0,0-2.52-.65,4.79,4.79,0,0,0-2.53.68A4.69,4.69,0,0,0,433,455a6,6,0,0,0,0,5.3,4.69,4.69,0,0,0,1.73,1.83A5,5,0,0,0,437.23,462.74Z" transform="translate(-242.06 -297.83)"/><path id="path279705" class="cls-1" d="M461.07,457a5.7,5.7,0,0,0,1.45,4.15,5.43,5.43,0,0,0,4,1.48,5.33,5.33,0,0,0,4-1.48A5.74,5.74,0,0,0,472,457v-11.3h2.62V457a7.85,7.85,0,0,1-2.15,5.87,8,8,0,0,1-5.9,2.13,8.08,8.08,0,0,1-5.95-2.13,7.86,7.86,0,0,1-2.16-5.87v-11.3h2.62Z" transform="translate(-242.06 -297.83)"/><path id="path279707" class="cls-1" d="M483.66,453.46a5.15,5.15,0,0,1,2-2.35,5.89,5.89,0,0,1,3.11-.85v2.46a4.65,4.65,0,0,0-5.13,4.45v7.62h-2.54V450.35h2.54Z" transform="translate(-242.06 -297.83)"/><path id="path279709" class="cls-1" d="M501.31,450.26a7,7,0,0,1,3.6.93,6.36,6.36,0,0,1,2.46,2.6,8.78,8.78,0,0,1,0,7.62,6.18,6.18,0,0,1-2.43,2.56,7,7,0,0,1-3.58.9,6.58,6.58,0,0,1-3.22-.76,5.41,5.41,0,0,1-2.18-2.19v2.87h-2.54V444.53H496v8.68a5.5,5.5,0,0,1,2.15-2.18,6.56,6.56,0,0,1,3.2-.77Zm-.49,12.4a4.81,4.81,0,0,0,2.48-.65,4.4,4.4,0,0,0,1.72-1.83,5.55,5.55,0,0,0,.63-2.65,5.43,5.43,0,0,0-.63-2.62,4.54,4.54,0,0,0-1.72-1.83,4.72,4.72,0,0,0-2.48-.66,4.89,4.89,0,0,0-2.52.66,4.61,4.61,0,0,0-1.72,1.83,5.54,5.54,0,0,0-.62,2.62,5.65,5.65,0,0,0,.62,2.67A4.76,4.76,0,0,0,498.3,462,5,5,0,0,0,500.82,462.66Z" transform="translate(-242.06 -297.83)"/><path id="path279711" class="cls-1" d="M522.31,464.79v-2a6.85,6.85,0,0,1-7.7,1.56,4.32,4.32,0,0,1-1.74-1.59,4.26,4.26,0,0,1-.61-2.26,3.69,3.69,0,0,1,1.42-3.06,6.43,6.43,0,0,1,4-1.18h4.59v-.68a2.93,2.93,0,0,0-1-2.35,4,4,0,0,0-2.73-.84,7.89,7.89,0,0,0-4.45,1.55l-1.07-1.74a12.67,12.67,0,0,1,2.87-1.45,9.67,9.67,0,0,1,3.17-.47,6,6,0,0,1,4.18,1.34,4.78,4.78,0,0,1,1.5,3.69l0,9.5Zm-4.53-2a5.12,5.12,0,0,0,3-.85,3.45,3.45,0,0,0,1.51-2.29v-1.45h-4.24a5,5,0,0,0-2.56.52,1.78,1.78,0,0,0-.82,1.64,2.12,2.12,0,0,0,.84,1.77A3.6,3.6,0,0,0,517.78,462.8Z" transform="translate(-242.06 -297.83)"/><path id="path279713" class="cls-1" d="M539.07,450.26a5.23,5.23,0,0,1,4,1.51,5.55,5.55,0,0,1,1.45,4.09v8.93H542v-8.25a3.58,3.58,0,0,0-3.85-3.87,4.39,4.39,0,0,0-3.17,1.25,4.86,4.86,0,0,0-1.36,3.14v7.73H531V450.35h2.54v3Q535,450.33,539.07,450.26Z" transform="translate(-242.06 -297.83)"/><path id="path279715" class="cls-1" d="M565.48,445.68a8.12,8.12,0,0,1,5.52,1.69,5.93,5.93,0,0,1,2,4.75,6.35,6.35,0,0,1-2,5,8,8,0,0,1-5.52,1.75h-4.75v6h-2.62V445.68Zm-.1,10.78a5.83,5.83,0,0,0,3.76-1.06,3.92,3.92,0,0,0,1.31-3.2,3.67,3.67,0,0,0-1.31-3.08,5.83,5.83,0,0,0-3.76-1.07l-4.65,0v8.38Z" transform="translate(-242.06 -297.83)"/><path id="path279717" class="cls-1" d="M578.06,444.53h2.54v20.26h-2.54Z" transform="translate(-242.06 -297.83)"/><path id="path279719" class="cls-1" d="M596.23,464.79v-2a6.85,6.85,0,0,1-7.7,1.56,4.42,4.42,0,0,1-1.75-1.59,4.34,4.34,0,0,1-.6-2.26,3.69,3.69,0,0,1,1.42-3.06,6.43,6.43,0,0,1,4-1.18h4.59v-.68a2.93,2.93,0,0,0-1-2.35,4,4,0,0,0-2.73-.84,7.89,7.89,0,0,0-4.45,1.55L587,452.18a12.67,12.67,0,0,1,2.87-1.45,9.67,9.67,0,0,1,3.17-.47,6,6,0,0,1,4.18,1.34,4.78,4.78,0,0,1,1.5,3.69l0,9.5Zm-4.53-2a5.12,5.12,0,0,0,3-.85,3.45,3.45,0,0,0,1.51-2.29v-1.45H592a5,5,0,0,0-2.56.52,1.78,1.78,0,0,0-.82,1.64,2.12,2.12,0,0,0,.84,1.77A3.6,3.6,0,0,0,591.7,462.8Z" transform="translate(-242.06 -297.83)"/><path id="path279721" class="cls-1" d="M613,450.26a5.23,5.23,0,0,1,4,1.51,5.55,5.55,0,0,1,1.45,4.09v8.93h-2.54v-8.25a3.58,3.58,0,0,0-3.85-3.87,4.39,4.39,0,0,0-3.17,1.25,4.86,4.86,0,0,0-1.36,3.14v7.73H605V450.35h2.54v3Q608.94,450.33,613,450.26Z" transform="translate(-242.06 -297.83)"/><path id="path279723" class="cls-1" d="M632.67,450.26a5.23,5.23,0,0,1,4,1.51,5.55,5.55,0,0,1,1.45,4.09v8.93h-2.54v-8.25a3.58,3.58,0,0,0-3.85-3.87,4.39,4.39,0,0,0-3.17,1.25,4.86,4.86,0,0,0-1.36,3.14v7.73h-2.54V450.35h2.54v3Q628.62,450.33,632.67,450.26Z" transform="translate(-242.06 -297.83)"/><path id="path279725" class="cls-1" d="M644.32,450.35h2.54v14.44h-2.54Zm1.26-5.77a1.49,1.49,0,0,1,1.12.47,1.73,1.73,0,0,1,0,2.35,1.49,1.49,0,0,1-1.12.46,1.55,1.55,0,0,1-1.15-.46,1.79,1.79,0,0,1,0-2.35A1.56,1.56,0,0,1,645.58,444.58Z" transform="translate(-242.06 -297.83)"/><path id="path279727" class="cls-1" d="M661.52,450.26a5.27,5.27,0,0,1,4,1.51,5.59,5.59,0,0,1,1.44,4.09v8.93h-2.53v-8.25a3.8,3.8,0,0,0-1-2.84,3.75,3.75,0,0,0-2.81-1,4.37,4.37,0,0,0-3.17,1.25,4.87,4.87,0,0,0-1.37,3.14v7.73h-2.54V450.35H656v3Q657.49,450.33,661.52,450.26Z" transform="translate(-242.06 -297.83)"/><path id="path279729" class="cls-1" d="M686,450.35v13A7,7,0,0,1,685,467a5.82,5.82,0,0,1-2.56,2.37,8.4,8.4,0,0,1-3.88.85,9.85,9.85,0,0,1-6-2l1.12-1.86a7.37,7.37,0,0,0,2.21,1.29,7,7,0,0,0,2.51.43,5.05,5.05,0,0,0,3.58-1.25,4.41,4.41,0,0,0,1.34-3.36v-2a5.6,5.6,0,0,1-2.08,2.05,6.24,6.24,0,0,1-3,.71,6.72,6.72,0,0,1-3.44-.88,6.18,6.18,0,0,1-2.3-2.48,7.89,7.89,0,0,1-.82-3.63,7.65,7.65,0,0,1,.82-3.58,6,6,0,0,1,2.3-2.43,6.72,6.72,0,0,1,3.44-.88,6.16,6.16,0,0,1,3,.71,5.38,5.38,0,0,1,2.08,2v-2.64Zm-7.15,11.74a4.47,4.47,0,0,0,2.37-.63,4.24,4.24,0,0,0,1.61-1.72,5.12,5.12,0,0,0,.61-2.51,5.06,5.06,0,0,0-.61-2.52,4.23,4.23,0,0,0-1.61-1.74,4.47,4.47,0,0,0-2.37-.63,4.66,4.66,0,0,0-2.41.63,4.48,4.48,0,0,0-1.63,1.74,5.16,5.16,0,0,0-.6,2.52,4.93,4.93,0,0,0,1.31,3.49,4.35,4.35,0,0,0,3.33,1.37Z" transform="translate(-242.06 -297.83)"/><path id="path279731" class="cls-1" d="M713.91,464.79l-2-4.64H701.81l-2,4.64h-2.76l8.5-19.11h2.73l8.46,19.11Zm-11.06-7h8l-4-9.28Z" transform="translate(-242.06 -297.83)"/><path id="path279733" class="cls-1" d="M723.55,453.46a5.21,5.21,0,0,1,2-2.35,5.93,5.93,0,0,1,3.12-.85v2.46a4.66,4.66,0,0,0-5.14,4.45v7.62H721V450.35h2.54Z" transform="translate(-242.06 -297.83)"/><path id="path279735" class="cls-1" d="M739,450.26a6.35,6.35,0,0,1,5.08,2,8,8,0,0,1,1.72,5.49c0,.36,0,.63,0,.82H734.32a5,5,0,0,0,1.61,3.08,4.83,4.83,0,0,0,3.28,1.15,6,6,0,0,0,2.37-.47,5.55,5.55,0,0,0,1.94-1.31l1.39,1.45a7.21,7.21,0,0,1-2.56,1.77,8.52,8.52,0,0,1-3.33.63,7.87,7.87,0,0,1-3.8-.9,6.67,6.67,0,0,1-2.57-2.59,7.87,7.87,0,0,1-.9-3.8,7.73,7.73,0,0,1,.9-3.77,6.67,6.67,0,0,1,2.57-2.59,7.26,7.26,0,0,1,3.74-1Zm4.51,6.34a4.2,4.2,0,0,0-4.48-4.23,4.65,4.65,0,0,0-3.2,1.14,4.94,4.94,0,0,0-1.5,3.09Z" transform="translate(-242.06 -297.83)"/><path id="path279737" class="cls-1" d="M759,450.26a5.27,5.27,0,0,1,4,1.51,5.59,5.59,0,0,1,1.44,4.09v8.93h-2.53v-8.25a3.58,3.58,0,0,0-3.86-3.87,4.37,4.37,0,0,0-3.16,1.25,4.87,4.87,0,0,0-1.37,3.14v7.73h-2.54V450.35h2.54v3Q754.93,450.33,759,450.26Z" transform="translate(-242.06 -297.83)"/><path id="path279739" class="cls-1" d="M779.43,464.79v-2a6.85,6.85,0,0,1-7.7,1.56,4.42,4.42,0,0,1-1.75-1.59,4.34,4.34,0,0,1-.6-2.26,3.69,3.69,0,0,1,1.42-3.06,6.43,6.43,0,0,1,4-1.18h4.59v-.68a2.93,2.93,0,0,0-1-2.35,4,4,0,0,0-2.73-.84,7.89,7.89,0,0,0-4.45,1.55l-1.07-1.74a12.67,12.67,0,0,1,2.87-1.45,9.67,9.67,0,0,1,3.17-.47,6,6,0,0,1,4.18,1.34,4.78,4.78,0,0,1,1.5,3.69l0,9.5Zm-4.53-2a5.12,5.12,0,0,0,3-.85,3.45,3.45,0,0,0,1.51-2.29v-1.45h-4.24a5,5,0,0,0-2.56.52,1.78,1.78,0,0,0-.82,1.64,2.12,2.12,0,0,0,.84,1.77A3.6,3.6,0,0,0,774.9,462.8Z" transform="translate(-242.06 -297.83)"/></g></svg>